ply
format ascii 1.0
comment created by gply, a Houdini tool.
comment converted from .[b]geo
comment for more information about Houdini, try:
comment www.sidefx.com
element vertex 128
property float x
property float y
property float z
property float qsec
property float object_id
property float hp
property float cyl
property uchar red
property uchar green
property uchar blue
property float weight
element face 128
property list uchar int vertex_indices
end_header
16.4599991 6.57999992 11.8841095 16.4599991 0 110 6 191 0 0 2.61999989 
15.9131689 5.80666876 11.8841095 16.4599991 0 110 6 191 0 0 2.61999989 
16.7334137 5.80666876 12.3576784 16.4599991 0 110 6 191 0 0 2.61999989 
16.7334137 5.80666876 11.4105406 16.4599991 0 110 6 191 0 0 2.61999989 
17.0200005 6.57999992 13.0407696 17.0200005 1 110 6 191 0 0 2.875 
16.4731712 5.80666876 13.0407696 17.0200005 1 110 6 191 0 0 2.875 
17.2934151 5.80666876 13.5143385 17.0200005 1 110 6 191 0 0 2.875 
17.2934151 5.80666876 12.5672007 17.0200005 1 110 6 191 0 0 2.875 
18.6100006 4.57999992 10.5233345 18.6100006 2 93 4 128 0 0 2.31999993 
18.0631714 3.80666876 10.5233345 18.6100006 2 93 4 128 0 0 2.31999993 
18.8834152 3.80666876 10.9969034 18.6100006 2 93 4 128 0 0 2.31999993 
18.8834152 3.80666876 10.0497656 18.6100006 2 93 4 128 0 0 2.31999993 
19.4400005 6.57999992 14.5829821 19.4400005 3 110 6 191 0 0 3.21499991 
18.8931713 5.80666876 14.5829821 19.4400005 3 110 6 191 0 0 3.21499991 
19.7134151 5.80666876 15.056551 19.4400005 3 110 6 191 0 0 3.21499991 
19.7134151 5.80666876 14.1094131 19.4400005 3 110 6 191 0 0 3.21499991 
17.0200005 8.57999992 15.6035652 17.0200005 4 175 8 255 0 0 3.44000006 
16.4731712 7.80666876 15.6035652 17.0200005 4 175 8 255 0 0 3.44000006 
17.2934151 7.80666876 16.0771332 17.0200005 4 175 8 255 0 0 3.44000006 
17.2934151 7.80666876 15.1299963 17.0200005 4 175 8 255 0 0 3.44000006 
20.2199993 6.57999992 15.6942835 20.2199993 5 105 6 191 0 0 3.46000004 
19.6731701 5.80666876 15.6942835 20.2199993 5 105 6 191 0 0 3.46000004 
20.4934139 5.80666876 16.1678524 20.2199993 5 105 6 191 0 0 3.46000004 
20.4934139 5.80666876 15.2207146 20.2199993 5 105 6 191 0 0 3.46000004 
15.8400002 8.57999992 16.1932335 15.8400002 6 245 8 255 0 0 3.56999993 
15.29317 7.80666876 16.1932335 15.8400002 6 245 8 255 0 0 3.56999993 
16.1134148 7.80666876 16.6668015 15.8400002 6 245 8 255 0 0 3.56999993 
16.1134148 7.80666876 15.7196646 15.8400002 6 245 8 255 0 0 3.56999993 
20 4.57999992 14.4695854 20 7 62 4 128 0 0 3.19000006 
19.4531708 3.80666876 14.4695854 20 7 62 4 128 0 0 3.19000006 
20.2734146 3.80666876 14.9431543 20 7 62 4 128 0 0 3.19000006 
20.2734146 3.80666876 13.9960165 20 7 62 4 128 0 0 3.19000006 
22.8999996 4.57999992 14.2881489 22.8999996 8 95 4 128 0 0 3.1500001 
22.3531704 3.80666876 14.2881489 22.8999996 8 95 4 128 0 0 3.1500001 
23.1734142 3.80666876 14.7617178 22.8999996 8 95 4 128 0 0 3.1500001 
23.1734142 3.80666876 13.81458 22.8999996 8 95 4 128 0 0 3.1500001 
18.2999992 6.57999992 15.6035652 18.2999992 9 123 6 191 0 0 3.44000006 
17.75317 5.80666876 15.6035652 18.2999992 9 123 6 191 0 0 3.44000006 
18.5734138 5.80666876 16.0771332 18.2999992 9 123 6 191 0 0 3.44000006 
18.5734138 5.80666876 15.1299963 18.2999992 9 123 6 191 0 0 3.44000006 
18.8999996 6.57999992 15.6035652 18.8999996 10 123 6 191 0 0 3.44000006 
18.3531704 5.80666876 15.6035652 18.8999996 10 123 6 191 0 0 3.44000006 
19.1734142 5.80666876 16.0771332 18.8999996 10 123 6 191 0 0 3.44000006 
19.1734142 5.80666876 15.1299963 18.8999996 10 123 6 191 0 0 3.44000006 
17.3999996 8.57999992 18.461195 17.3999996 11 180 8 255 0 0 4.07000017 
16.8531704 7.80666876 18.461195 17.3999996 11 180 8 255 0 0 4.07000017 
17.6734142 7.80666876 18.934763 17.3999996 11 180 8 255 0 0 4.07000017 
17.6734142 7.80666876 17.987627 17.3999996 11 180 8 255 0 0 4.07000017 
17.6000004 8.57999992 16.9189816 17.6000004 12 180 8 255 0 0 3.73000002 
17.0531712 7.80666876 16.9189816 17.6000004 12 180 8 255 0 0 3.73000002 
17.873415 7.80666876 17.3925495 17.6000004 12 180 8 255 0 0 3.73000002 
17.873415 7.80666876 16.4454136 17.6000004 12 180 8 255 0 0 3.73000002 
18 8.57999992 17.1457767 18 13 180 8 255 0 0 3.77999997 
17.4531708 7.80666876 17.1457767 18 13 180 8 255 0 0 3.77999997 
18.2734146 7.80666876 17.6193447 18 13 180 8 255 0 0 3.77999997 
18.2734146 7.80666876 16.6722088 18 13 180 8 255 0 0 3.77999997 
17.9799995 8.57999992 23.8135796 17.9799995 14 205 8 255 0 0 5.25 
17.4331703 7.80666876 23.8135796 17.9799995 14 205 8 255 0 0 5.25 
18.2534142 7.80666876 24.2871475 17.9799995 14 205 8 255 0 0 5.25 
18.2534142 7.80666876 23.3400116 17.9799995 14 205 8 255 0 0 5.25 
17.8199997 8.57999992 24.602829 17.8199997 15 215 8 255 0 0 5.42399979 
17.2731705 7.80666876 24.602829 17.8199997 15 215 8 255 0 0 5.42399979 
18.0934143 7.80666876 25.0763969 17.8199997 15 215 8 255 0 0 5.42399979 
18.0934143 7.80666876 24.129261 17.8199997 15 215 8 255 0 0 5.42399979 
17.4200001 8.57999992 24.2444916 17.4200001 16 230 8 255 0 0 5.34499979 
16.8731709 7.80666876 24.2444916 17.4200001 16 230 8 255 0 0 5.34499979 
17.6934147 7.80666876 24.7180595 17.4200001 16 230 8 255 0 0 5.34499979 
17.6934147 7.80666876 23.7709236 17.4200001 16 230 8 255 0 0 5.34499979 
19.4699993 4.57999992 9.97902393 19.4699993 17 66 4 128 0 0 2.20000005 
18.9231701 3.80666876 9.97902393 19.4699993 17 66 4 128 0 0 2.20000005 
19.7434139 3.80666876 10.4525928 19.4699993 17 66 4 128 0 0 2.20000005 
19.7434139 3.80666876 9.50545502 19.4699993 17 66 4 128 0 0 2.20000005 
18.5200005 4.57999992 7.32551098 18.5200005 18 52 4 128 0 0 1.61500001 
17.9731712 3.80666876 7.32551098 18.5200005 18 52 4 128 0 0 1.61500001 
18.7934151 3.80666876 7.79907942 18.5200005 18 52 4 128 0 0 1.61500001 
18.7934151 3.80666876 6.85194254 18.5200005 18 52 4 128 0 0 1.61500001 
19.8999996 4.57999992 8.32341385 19.8999996 19 65 4 128 0 0 1.83500004 
19.3531704 3.80666876 8.32341385 19.8999996 19 65 4 128 0 0 1.83500004 
20.1734142 3.80666876 8.79698277 19.8999996 19 65 4 128 0 0 1.83500004 
20.1734142 3.80666876 7.84984541 19.8999996 19 65 4 128 0 0 1.83500004 
20.0100002 4.57999992 11.1810427 20.0100002 20 97 4 128 0 0 2.46499991 
19.463171 3.80666876 11.1810427 20.0100002 20 97 4 128 0 0 2.46499991 
20.2834148 3.80666876 11.6546116 20.0100002 20 97 4 128 0 0 2.46499991 
20.2834148 3.80666876 10.7074738 20.0100002 20 97 4 128 0 0 2.46499991 
16.8700008 8.57999992 15.9664383 16.8700008 21 150 8 255 0 0 3.51999998 
16.3231716 7.80666876 15.9664383 16.8700008 21 150 8 255 0 0 3.51999998 
17.1434155 7.80666876 16.4400063 16.8700008 21 150 8 255 0 0 3.51999998 
17.1434155 7.80666876 15.4928694 16.8700008 21 150 8 255 0 0 3.51999998 
17.2999992 8.57999992 15.5808849 17.2999992 22 150 8 255 0 0 3.43499994 
16.75317 7.80666876 15.5808849 17.2999992 22 150 8 255 0 0 3.43499994 
17.5734138 7.80666876 16.0544529 17.2999992 22 150 8 255 0 0 3.43499994 
17.5734138 7.80666876 15.107316 17.2999992 22 150 8 255 0 0 3.43499994 
15.4099998 8.57999992 17.4179325 15.4099998 23 245 8 255 0 0 3.83999991 
14.8631697 7.80666876 17.4179325 15.4099998 23 245 8 255 0 0 3.83999991 
15.6834145 7.80666876 17.8915005 15.4099998 23 245 8 255 0 0 3.83999991 
15.6834145 7.80666876 16.9443645 15.4099998 23 245 8 255 0 0 3.83999991 
17.0499992 8.57999992 17.4406128 17.0499992 24 175 8 255 0 0 3.84500003 
16.50317 7.80666876 17.4406128 17.0499992 24 175 8 255 0 0 3.84500003 
17.3234138 7.80666876 17.9141808 17.0499992 24 175 8 255 0 0 3.84500003 
17.3234138 7.80666876 16.9670448 17.0499992 24 175 8 255 0 0 3.84500003 
18.8999996 4.57999992 8.7770052 18.8999996 25 66 4 128 0 0 1.93499994 
18.3531704 3.80666876 8.7770052 18.8999996 25 66 4 128 0 0 1.93499994 
19.1734142 3.80666876 9.25057411 18.8999996 25 66 4 128 0 0 1.93499994 
19.1734142 3.80666876 8.30343628 18.8999996 25 66 4 128 0 0 1.93499994 
16.7000008 4.57999992 9.70686913 16.7000008 26 91 4 128 0 0 2.1400001 
16.1531715 3.80666876 9.70686913 16.7000008 26 91 4 128 0 0 2.1400001 
16.9734154 3.80666876 10.180438 16.7000008 26 91 4 128 0 0 2.1400001 
16.9734154 3.80666876 9.23330021 16.7000008 26 91 4 128 0 0 2.1400001 
16.8999996 4.57999992 6.86284685 16.8999996 27 113 4 128 0 0 1.51300001 
16.3531704 3.80666876 6.86284685 16.8999996 27 113 4 128 0 0 1.51300001 
17.1734142 3.80666876 7.33641529 16.8999996 27 113 4 128 0 0 1.51300001 
17.1734142 3.80666876 6.38927841 16.8999996 27 113 4 128 0 0 1.51300001 
14.5 8.57999992 14.3788671 14.5 28 264 8 255 0 0 3.17000008 
13.9531698 7.80666876 14.3788671 14.5 28 264 8 255 0 0 3.17000008 
14.7734146 7.80666876 14.8524361 14.5 28 264 8 255 0 0 3.17000008 
14.7734146 7.80666876 13.9052982 14.5 28 264 8 255 0 0 3.17000008 
15.5 6.57999992 12.5644979 15.5 29 175 6 191 0 0 2.76999998 
14.9531698 5.80666876 12.5644979 15.5 29 175 6 191 0 0 2.76999998 
15.7734146 5.80666876 13.0380669 15.5 29 175 6 191 0 0 2.76999998 
15.7734146 5.80666876 12.090929 15.5 29 175 6 191 0 0 2.76999998 
14.6000004 8.57999992 16.1932335 14.6000004 30 335 8 255 0 0 3.56999993 
14.0531702 7.80666876 16.1932335 14.6000004 30 335 8 255 0 0 3.56999993 
14.873415 7.80666876 16.6668015 14.6000004 30 335 8 255 0 0 3.56999993 
14.873415 7.80666876 15.7196646 14.6000004 30 335 8 255 0 0 3.56999993 
18.6000004 4.57999992 12.6098576 18.6000004 31 109 4 128 0 0 2.77999997 
18.0531712 3.80666876 12.6098576 18.6000004 31 109 4 128 0 0 2.77999997 
18.873415 3.80666876 13.0834265 18.6000004 31 109 4 128 0 0 2.77999997 
18.873415 3.80666876 12.1362886 18.6000004 31 109 4 128 0 0 2.77999997 
3 0 2 3 
3 0 3 1 
3 0 1 2 
3 1 3 2 
3 4 6 7 
3 4 7 5 
3 4 5 6 
3 5 7 6 
3 8 10 11 
3 8 11 9 
3 8 9 10 
3 9 11 10 
3 12 14 15 
3 12 15 13 
3 12 13 14 
3 13 15 14 
3 16 18 19 
3 16 19 17 
3 16 17 18 
3 17 19 18 
3 20 22 23 
3 20 23 21 
3 20 21 22 
3 21 23 22 
3 24 26 27 
3 24 27 25 
3 24 25 26 
3 25 27 26 
3 28 30 31 
3 28 31 29 
3 28 29 30 
3 29 31 30 
3 32 34 35 
3 32 35 33 
3 32 33 34 
3 33 35 34 
3 36 38 39 
3 36 39 37 
3 36 37 38 
3 37 39 38 
3 40 42 43 
3 40 43 41 
3 40 41 42 
3 41 43 42 
3 44 46 47 
3 44 47 45 
3 44 45 46 
3 45 47 46 
3 48 50 51 
3 48 51 49 
3 48 49 50 
3 49 51 50 
3 52 54 55 
3 52 55 53 
3 52 53 54 
3 53 55 54 
3 56 58 59 
3 56 59 57 
3 56 57 58 
3 57 59 58 
3 60 62 63 
3 60 63 61 
3 60 61 62 
3 61 63 62 
3 64 66 67 
3 64 67 65 
3 64 65 66 
3 65 67 66 
3 68 70 71 
3 68 71 69 
3 68 69 70 
3 69 71 70 
3 72 74 75 
3 72 75 73 
3 72 73 74 
3 73 75 74 
3 76 78 79 
3 76 79 77 
3 76 77 78 
3 77 79 78 
3 80 82 83 
3 80 83 81 
3 80 81 82 
3 81 83 82 
3 84 86 87 
3 84 87 85 
3 84 85 86 
3 85 87 86 
3 88 90 91 
3 88 91 89 
3 88 89 90 
3 89 91 90 
3 92 94 95 
3 92 95 93 
3 92 93 94 
3 93 95 94 
3 96 98 99 
3 96 99 97 
3 96 97 98 
3 97 99 98 
3 100 102 103 
3 100 103 101 
3 100 101 102 
3 101 103 102 
3 104 106 107 
3 104 107 105 
3 104 105 106 
3 105 107 106 
3 108 110 111 
3 108 111 109 
3 108 109 110 
3 109 111 110 
3 112 114 115 
3 112 115 113 
3 112 113 114 
3 113 115 114 
3 116 118 119 
3 116 119 117 
3 116 117 118 
3 117 119 118 
3 120 122 123 
3 120 123 121 
3 120 121 122 
3 121 123 122 
3 124 126 127 
3 124 127 125 
3 124 125 126 
3 125 127 126 
